<?xml version="1.0" standalone="no"?>
<!DOCTYPE svg PUBLIC "-//W3C//DTD SVG 20010904//EN"
 "http://www.w3.org/TR/2001/REC-SVG-20010904/DTD/svg10.dtd">
<svg version="1.0" xmlns="http://www.w3.org/2000/svg"
 width="600.000000pt" height="600.000000pt" viewBox="0 0 600.000000 600.000000"
 preserveAspectRatio="xMidYMid meet">
<metadata>
Created by potrace 1.11, written by Peter Selinger 2001-2013
</metadata>
<g transform="translate(0.000000,600.000000) scale(0.100000,-0.100000)"
fill="#000000" stroke="none">
<path d="M2735 5989 c-971 -84 -1854 -652 -2342 -1506 -294 -513 -434 -1142
-383 -1723 65 -730 359 -1365 874 -1884 461 -464 1042 -752 1721 -853 152 -22
609 -25 755 -5 379 53 686 148 1003 310 285 145 526 321 757 552 471 471 755
1043 857 1725 25 170 25 620 0 790 -55 369 -149 665 -309 978 -263 512 -678
944 -1185 1234 -518 297 -1145 434 -1748 382z m-15 -1428 c226 -45 406 -133
592 -288 117 -97 182 -169 476 -527 86 -105 274 -301 304 -317 13 -7 36 3 95
42 189 123 362 179 557 179 214 0 365 -79 395 -207 l12 -50 -192 -534 c-105
-294 -200 -552 -211 -574 -46 -91 -182 -183 -324 -219 -208 -53 -514 34 -731
208 -45 36 -84 66 -88 66 -15 0 -172 -128 -325 -265 -91 -81 -196 -173 -235
-205 -290 -237 -564 -340 -906 -340 -318 0 -567 92 -804 297 -267 230 -431
603 -374 853 17 77 358 1125 398 1224 98 245 285 452 509 565 86 43 221 86
312 100 41 6 86 13 100 15 59 11 349 -5 440 -23z"/>
<path d="M1332 3715 c0 -16 2 -22 5 -12 2 9 2 23 0 30 -3 6 -5 -1 -5 -18z"/>
<path d="M1341 3654 c0 -11 3 -14 6 -6 3 7 2 16 -1 19 -3 4 -6 -2 -5 -13z"/>
<path d="M1868 3479 c-108 -13 -261 -54 -341 -91 l-69 -33 59 -90 c86 -131
166 -226 294 -350 260 -253 533 -415 799 -476 116 -26 361 -36 512 -19 l117
12 71 94 c39 52 67 93 62 92 -5 -2 -80 85 -168 192 -193 237 -331 381 -444
467 -96 73 -255 154 -346 177 -131 34 -374 44 -546 25z"/>
</g>
</svg>
